<svg width="43" height="31" viewBox="0 0 43 31" fill="none" xmlns="http://www.w3.org/2000/svg">
<path fill-rule="evenodd" clip-rule="evenodd" d="M31.706 8.8042L31.7059 8.80544L33.9265 8.81742C34.1791 8.79868 34.434 8.79976 34.6886 8.8213L40.1124 8.85039C40.9372 8.89805 41.5912 9.58751 41.5912 10.4314C41.5912 10.8302 41.4451 11.1945 41.2041 11.4727L38.5649 16.0824C38.544 16.1213 38.5226 16.16 38.5006 16.1985L31.97 27.6353C31.0854 29.1845 29.4945 30.0644 27.846 30.0995L27.8462 30.1006L27.7694 30.1005C27.727 30.1007 27.6845 30.1004 27.6419 30.0995L8.31723 29.9998H6.16367L6.16378 29.9613C7.79981 29.7319 9.1763 28.6817 9.87328 27.2352L9.88886 27.2356L19.3564 10.5874C19.8878 9.52925 20.9744 8.8042 22.2286 8.8042L22.1412 8.80606L22.1442 8.8042H31.706Z" fill="#2BBDF7"/>
<path fill-rule="evenodd" clip-rule="evenodd" d="M16.5787 0.634882L33.6361 0.635156C34.4608 0.682869 35.1146 1.37231 35.1146 2.21616C35.1146 2.55441 35.0096 2.86785 34.8307 3.12494L30.2272 11.2054L25.3335 19.7932L25.3363 19.7924H25.3762L23.8112 22.5352C22.4919 24.8456 23.2328 27.7869 25.4575 29.1847L25.5955 29.2683C26.2222 29.6342 26.8959 29.8433 27.5721 29.9078L27.5723 30.0232L19.5078 30.023L19.5046 30.0302H5.51953C4.72545 30.0157 3.91913 29.8123 3.17313 29.3942C0.773914 28.0496 -0.0929328 24.993 1.23697 22.5672L11.8501 3.20832C12.8227 1.4341 14.7011 0.488685 16.5787 0.634882Z" fill="#2B6DEF"/>
<path fill-rule="evenodd" clip-rule="evenodd" d="M22.173 8.80399L31.566 8.81369L30.2073 11.1993L25.3137 19.7871L25.3164 19.7863H25.3563L23.7913 22.5292C22.472 24.8395 23.2129 27.7809 25.4376 29.1787L25.5756 29.2623C26.2023 29.6281 26.876 29.8373 27.5522 29.9018L27.5524 30.0171L19.488 30.0169L19.4847 30.0241L6.12805 30.0246C7.60881 29.8693 8.99896 29.045 9.83666 27.6821L9.93084 27.5225L19.8096 10.0629C20.37 9.33069 21.2322 8.84665 22.2076 8.80151L22.173 8.80399Z" fill="white"/>
<path fill-rule="evenodd" clip-rule="evenodd" d="M22.173 8.80399L31.566 8.81369L30.2073 11.1993L25.3137 19.7871L25.3164 19.7863H25.3563L23.7913 22.5292C22.472 24.8395 23.2129 27.7809 25.4376 29.1787L25.5756 29.2623C26.2023 29.6281 26.876 29.8373 27.5522 29.9018L27.5524 30.0171L19.488 30.0169L19.4847 30.0241L6.12805 30.0246C7.60881 29.8693 8.99896 29.045 9.83666 27.6821L9.93084 27.5225L19.8096 10.0629C20.37 9.33069 21.2322 8.84665 22.2076 8.80151L22.173 8.80399Z" fill="#0CC19B" fill-opacity="0.5"/>
<path fill-rule="evenodd" clip-rule="evenodd" d="M22.173 8.80399L31.566 8.81369L30.2073 11.1993L25.3137 19.7871L25.3164 19.7863H25.3563L23.7913 22.5292C22.472 24.8395 23.2129 27.7809 25.4376 29.1787L25.5756 29.2623C26.2023 29.6281 26.876 29.8373 27.5522 29.9018L27.5524 30.0171L19.488 30.0169L19.4847 30.0241L6.12805 30.0246C7.60881 29.8693 8.99896 29.045 9.83666 27.6821L9.93084 27.5225L19.8096 10.0629C20.37 9.33069 21.2322 8.84665 22.2076 8.80151L22.173 8.80399Z" fill="#003CB2"/>
</svg>
