<svg width="1200" height="1200" viewBox="0 0 20 20" fill="none" xmlns="http://www.w3.org/2000/svg" class=""><circle cx="10" cy="10" r="10"></circle><g clip-path="url(#polygon-svg-clip-path)"><path d="M13.0625 7.98749C12.8437 7.86249 12.5625 7.86249 12.3125 7.98749L10.5625 9.01874L9.375 9.67499L7.65625 10.7062C7.4375 10.8312 7.15625 10.8312 6.90625 10.7062L5.5625 9.89374C5.34375 9.76874 5.1875 9.51874 5.1875 9.23749V7.67499C5.1875 7.42499 5.3125 7.17499 5.5625 7.01874L6.90625 6.23749C7.125 6.11249 7.40625 6.11249 7.65625 6.23749L9 7.04999C9.21875 7.17499 9.375 7.42499 9.375 7.70624V8.73749L10.5625 8.04999V6.98749C10.5625 6.73749 10.4375 6.48749 10.1875 6.33124L7.6875 4.86249C7.46875 4.73749 7.1875 4.73749 6.9375 4.86249L4.375 6.36249C4.125 6.48749 4 6.73749 4 6.98749V9.92499C4 10.175 4.125 10.425 4.375 10.5812L6.90625 12.05C7.125 12.175 7.40625 12.175 7.65625 12.05L9.375 11.05L10.5625 10.3625L12.2812 9.36249C12.5 9.23749 12.7812 9.23749 13.0312 9.36249L14.375 10.1437C14.5937 10.2687 14.75 10.5187 14.75 10.8V12.3625C14.75 12.6125 14.625 12.8625 14.375 13.0187L13.0625 13.8C12.8437 13.925 12.5625 13.925 12.3125 13.8L10.9687 13.0187C10.75 12.8937 10.5937 12.6437 10.5937 12.3625V11.3625L9.40625 12.05V13.0812C9.40625 13.3312 9.53125 13.5812 9.78125 13.7375L12.3125 15.2062C12.5312 15.3312 12.8125 15.3312 13.0625 15.2062L15.5937 13.7375C15.8125 13.6125 15.9687 13.3625 15.9687 13.0812V10.1125C15.9687 9.86249 15.8437 9.61249 15.5937 9.45624L13.0625 7.98749Z" fill="#8247E5"></path></g><defs><clipPath id="polygon-svg-clip-path"><rect width="12" height="10.4688" fill="white" transform="translate(4 4.79999)"></rect></clipPath></defs></svg>