<svg width="94" height="94" viewBox="0 0 94 94" fill="none" xmlns="http://www.w3.org/2000/svg">
<circle cx="47" cy="47" r="47" fill="white"/>
<path fill-rule="evenodd" clip-rule="evenodd" d="M61.1961 37.6907L61.1959 37.6923L64.1595 37.7083C64.4967 37.6833 64.8367 37.6848 65.1765 37.7135L72.4149 37.7523C73.5158 37.8159 74.3885 38.736 74.3885 39.8623C74.3885 40.3945 74.1936 40.8807 73.872 41.2519L70.3497 47.4039C70.3219 47.4558 70.2933 47.5074 70.2639 47.5589L61.5484 62.822C60.3678 64.8895 58.2448 66.0639 56.0447 66.1106L56.0449 66.1121L55.9425 66.112C55.8858 66.1123 55.8291 66.1119 55.7723 66.1107L29.9822 65.9776H27.1082L27.1083 65.9261C29.2917 65.6201 31.1287 64.2185 32.0589 62.288L32.0797 62.2885L44.7147 40.0705C45.424 38.6583 46.8741 37.6907 48.5478 37.6907L48.4312 37.6932L48.4352 37.6907H61.1961Z" fill="#2BBDF7"/>
<path fill-rule="evenodd" clip-rule="evenodd" d="M41.0078 26.7883L63.772 26.7886C64.8726 26.8523 65.7452 27.7724 65.7452 28.8986C65.7452 29.35 65.605 29.7683 65.3662 30.1114L59.2226 40.8953L52.6917 52.3562L52.6954 52.3552H52.7486L50.66 56.0157C48.8993 59.099 49.8881 63.0244 52.8571 64.8899L53.0413 65.0015C53.8777 65.4897 54.7767 65.7689 55.6792 65.8549L55.6794 66.0088L44.9169 66.0086L44.9126 66.0182H26.2486C25.1888 65.9988 24.1128 65.7274 23.1172 65.1695C19.9153 63.3749 18.7584 59.2957 20.5332 56.0583L34.6971 30.2227C35.9952 27.8549 38.502 26.5931 41.0078 26.7883Z" fill="#2B6DEF"/>
<path fill-rule="evenodd" clip-rule="evenodd" d="M48.4736 37.6906L61.0092 37.7035L59.1959 40.8873L52.665 52.3482L52.6687 52.3472H52.7219L50.6333 56.0077C48.8727 59.091 49.8614 63.0164 52.8304 64.8819L53.0146 64.9935C53.851 65.4817 54.75 65.7609 55.6525 65.8469L55.6527 66.0008L44.8902 66.0006L44.8859 66.0102L27.0605 66.0108C29.0367 65.8036 30.892 64.7034 32.0099 62.8846L32.1356 62.6716L45.3195 39.3706C46.0673 38.3935 47.218 37.7475 48.5198 37.6873L48.4736 37.6906Z" fill="white"/>
<path fill-rule="evenodd" clip-rule="evenodd" d="M48.4736 37.6906L61.0092 37.7035L59.1959 40.8873L52.665 52.3482L52.6687 52.3472H52.7219L50.6333 56.0077C48.8727 59.091 49.8614 63.0164 52.8304 64.8819L53.0146 64.9935C53.851 65.4817 54.75 65.7609 55.6525 65.8469L55.6527 66.0008L44.8902 66.0006L44.8859 66.0102L27.0605 66.0108C29.0367 65.8036 30.892 64.7034 32.0099 62.8846L32.1356 62.6716L45.3195 39.3706C46.0673 38.3935 47.218 37.7475 48.5198 37.6873L48.4736 37.6906Z" fill="#0CC19B" fill-opacity="0.5"/>
<path fill-rule="evenodd" clip-rule="evenodd" d="M48.4736 37.6906L61.0092 37.7035L59.1959 40.8873L52.665 52.3482L52.6687 52.3472H52.7219L50.6333 56.0077C48.8727 59.091 49.8614 63.0164 52.8304 64.8819L53.0146 64.9935C53.851 65.4817 54.75 65.7609 55.6525 65.8469L55.6527 66.0008L44.8902 66.0006L44.8859 66.0102L27.0605 66.0108C29.0367 65.8036 30.892 64.7034 32.0099 62.8846L32.1356 62.6716L45.3195 39.3706C46.0673 38.3935 47.218 37.7475 48.5198 37.6873L48.4736 37.6906Z" fill="#003CB2"/>
</svg>
