<svg width="13" height="21" viewBox="0 0 13 21" fill="none" xmlns="http://www.w3.org/2000/svg">
<path d="M8.08021 12.0791L8.08021 1.51469C8.08021 1.36258 8.14063 1.2167 8.24819 1.10915C8.35575 1.00159 8.50163 0.941162 8.65373 0.941162C8.80584 0.941162 8.95172 1.00159 9.05928 1.10915C9.16684 1.2167 9.22726 1.36258 9.22726 1.51469L9.22726 12.0791C9.22726 12.2312 9.16684 12.3771 9.05928 12.4847C8.95172 12.5922 8.80584 12.6526 8.65373 12.6526C8.50163 12.6526 8.35575 12.5922 8.24819 12.4847C8.14063 12.3771 8.08021 12.2312 8.08021 12.0791Z" fill="black"/>
<path d="M4.68379 4.91188C4.68375 4.83655 4.69856 4.76195 4.72736 4.69234C4.75616 4.62273 4.79839 4.55948 4.85164 4.5062L8.24846 1.10899C8.35663 1.00452 8.5015 0.946713 8.65188 0.94802C8.80226 0.949326 8.94611 1.00964 9.05245 1.11598C9.15878 1.22232 9.2191 1.36617 9.22041 1.51654C9.22171 1.66692 9.1639 1.8118 9.05943 1.91997L5.66184 5.31717C5.58164 5.39728 5.47949 5.45182 5.3683 5.47391C5.25711 5.496 5.14187 5.48464 5.03714 5.44127C4.9324 5.39791 4.84286 5.32447 4.77984 5.23025C4.71681 5.13602 4.68312 5.02524 4.68302 4.91188L4.68379 4.91188Z" fill="black"/>
<path d="M9.66891 3.10295C9.66894 2.98951 9.7026 2.87863 9.76565 2.78432C9.82869 2.69001 9.91829 2.61652 10.0231 2.57314C10.1279 2.52976 10.2432 2.51843 10.3545 2.54059C10.4658 2.56276 10.5679 2.61742 10.6481 2.69765L12.4566 4.50618C12.5611 4.61435 12.6189 4.75923 12.6176 4.90961C12.6163 5.05998 12.556 5.20383 12.4497 5.31017C12.3433 5.41651 12.1995 5.47682 12.0491 5.47813C11.8987 5.47944 11.7538 5.42163 11.6457 5.31715L9.83677 3.50862C9.78352 3.45534 9.74129 3.39209 9.71249 3.32248C9.68369 3.25288 9.66888 3.17828 9.66891 3.10295Z" fill="#C8C8C8"/>
<path d="M4.04029 19.7261L4.04029 9.16166C4.04029 9.00955 4.10071 8.86368 4.20827 8.75612C4.31583 8.64856 4.46171 8.58813 4.61382 8.58813C4.76593 8.58813 4.91181 8.64856 5.01936 8.75612C5.12692 8.86368 5.18735 9.00955 5.18735 9.16166L5.18735 19.7261C5.18735 19.8782 5.12692 20.0241 5.01936 20.1316C4.91181 20.2392 4.76593 20.2996 4.61382 20.2996C4.46171 20.2996 4.31583 20.2392 4.20827 20.1316C4.10071 20.0241 4.04029 19.8782 4.04029 19.7261Z" fill="black"/>
<path d="M4.04023 19.7261C4.04026 19.5741 4.10064 19.4283 4.20808 19.3208L7.60567 15.9236C7.65858 15.8688 7.72187 15.8252 7.79184 15.7951C7.86181 15.765 7.93707 15.7492 8.01322 15.7486C8.08938 15.7479 8.1649 15.7624 8.23538 15.7912C8.30587 15.8201 8.3699 15.8627 8.42375 15.9165C8.4776 15.9704 8.52019 16.0344 8.54903 16.1049C8.57786 16.1754 8.59238 16.2509 8.59171 16.327C8.59105 16.4032 8.57523 16.4785 8.54517 16.5484C8.51511 16.6184 8.47142 16.6817 8.41664 16.7346L5.01906 20.1318C4.93883 20.2119 4.83664 20.2665 4.72542 20.2886C4.6142 20.3106 4.49893 20.2992 4.39417 20.2558C4.28942 20.2124 4.19989 20.1389 4.13689 20.0446C4.07389 19.9504 4.04026 19.8395 4.04023 19.7261Z" fill="black"/>
<path d="M0.6427 16.3288C0.642724 16.2153 0.676388 16.1045 0.739434 16.0102C0.802479 15.9158 0.892075 15.8424 0.99689 15.799C1.10171 15.7556 1.21703 15.7443 1.32829 15.7664C1.43954 15.7886 1.54172 15.8432 1.62191 15.9235L3.43082 17.732C3.53836 17.8397 3.59873 17.9856 3.59866 18.1378C3.59859 18.2899 3.53808 18.4358 3.43044 18.5434C3.32279 18.6509 3.17684 18.7113 3.02468 18.7112C2.87252 18.7111 2.72662 18.6506 2.61908 18.543L0.810553 16.7345C0.757304 16.6812 0.715072 16.6179 0.686272 16.5483C0.657471 16.4787 0.642666 16.4041 0.6427 16.3288Z" fill="#C8C8C8"/>
</svg>
