<svg width="22" height="22" viewBox="0 0 22 22" fill="none" xmlns="http://www.w3.org/2000/svg">
<path d="M4.1033 4.4687H17.8533C18.0139 4.46862 18.1744 4.47881 18.3337 4.4992C18.2797 4.12012 18.1495 3.7559 17.9509 3.4285C17.7523 3.10111 17.4895 2.81731 17.1783 2.59423C16.8671 2.37115 16.5139 2.2134 16.1401 2.1305C15.7663 2.0476 15.3795 2.04126 15.0032 2.11186L3.6951 4.04245H3.68221C2.97239 4.17818 2.34118 4.57978 1.91748 5.16522C2.55582 4.71118 3.31995 4.46768 4.1033 4.4687Z" fill="white"/>
<path d="M17.8535 5.5H4.10352C3.37441 5.5008 2.6754 5.79078 2.15985 6.30634C1.6443 6.82189 1.35431 7.5209 1.35352 8.25V16.5C1.35431 17.2291 1.6443 17.9281 2.15985 18.4437C2.6754 18.9592 3.37441 19.2492 4.10352 19.25H17.8535C18.5826 19.2492 19.2816 18.9592 19.7972 18.4437C20.3127 17.9281 20.6027 17.2291 20.6035 16.5V8.25C20.6027 7.5209 20.3127 6.82189 19.7972 6.30634C19.2816 5.79078 18.5826 5.5008 17.8535 5.5ZM15.8125 13.75C15.5406 13.75 15.2747 13.6694 15.0486 13.5183C14.8225 13.3672 14.6462 13.1524 14.5422 12.9012C14.4381 12.6499 14.4109 12.3735 14.4639 12.1068C14.517 11.84 14.6479 11.595 14.8402 11.4027C15.0325 11.2104 15.2775 11.0795 15.5443 11.0264C15.811 10.9734 16.0874 11.0006 16.3387 11.1047C16.5899 11.2087 16.8047 11.385 16.9558 11.6111C17.1069 11.8372 17.1875 12.1031 17.1875 12.375C17.1875 12.7397 17.0426 13.0894 16.7848 13.3473C16.5269 13.6051 16.1772 13.75 15.8125 13.75Z" fill="white"/>
<path d="M1.375 11.1504V6.875C1.375 5.94387 1.89062 4.38281 3.68027 4.04465C5.19922 3.75977 6.70312 3.75977 6.70312 3.75977C6.70312 3.75977 7.69141 4.44727 6.875 4.44727C6.05859 4.44727 6.08008 5.5 6.875 5.5C7.66992 5.5 6.875 6.50977 6.875 6.50977L3.67383 10.1406L1.375 11.1504Z" fill="white"/>
</svg>
