<svg width="30" height="30" viewBox="0 0 30 30" fill="none" xmlns="http://www.w3.org/2000/svg">
<circle cx="15" cy="15" r="15" fill="#FFEBC4"/>
<path fill-rule="evenodd" clip-rule="evenodd" d="M13.0677 9.54081C13.9015 8.01211 16.0966 8.01211 16.9304 9.54081L21.2244 17.4132C22.0241 18.8792 20.963 20.6666 19.2931 20.6666H10.7051C9.03513 20.6666 7.97404 18.8792 8.77369 17.4132L13.0677 9.54081ZM14.3962 17.6666C14.3962 17.2984 14.6946 17 15.0628 17C15.431 17 15.7295 17.2984 15.7295 17.6666C15.7295 18.0348 15.431 18.3333 15.0628 18.3333C14.6946 18.3333 14.3962 18.0348 14.3962 17.6666ZM15.0628 12C14.6946 12 14.3962 12.2984 14.3962 12.6666V15.3333C14.3962 15.7015 14.6946 16 15.0628 16C15.431 16 15.7295 15.7015 15.7295 15.3333V12.6666C15.7295 12.2984 15.431 12 15.0628 12Z" fill="#051033" fill-opacity="0.01"/>
<mask id="mask0" mask-type="alpha" maskUnits="userSpaceOnUse" x="8" y="8" width="14" height="13">
<path fill-rule="evenodd" clip-rule="evenodd" d="M13.0677 9.54081C13.9015 8.01211 16.0966 8.01211 16.9304 9.54081L21.2244 17.4132C22.0241 18.8792 20.963 20.6666 19.2931 20.6666H10.7051C9.03513 20.6666 7.97404 18.8792 8.77369 17.4132L13.0677 9.54081ZM14.3962 17.6666C14.3962 17.2984 14.6946 17 15.0628 17C15.431 17 15.7295 17.2984 15.7295 17.6666C15.7295 18.0348 15.431 18.3333 15.0628 18.3333C14.6946 18.3333 14.3962 18.0348 14.3962 17.6666ZM15.0628 12C14.6946 12 14.3962 12.2984 14.3962 12.6666V15.3333C14.3962 15.7015 14.6946 16 15.0628 16C15.431 16 15.7295 15.7015 15.7295 15.3333V12.6666C15.7295 12.2984 15.431 12 15.0628 12Z" fill="white"/>
</mask>
<g mask="url(#mask0)">
<path fill-rule="evenodd" clip-rule="evenodd" d="M7 6H23V22H7V6Z" fill="#FF8F00"/>
</g>
</svg>
